# xmcd CD database file
#
# Track frame offsets:
#	150
#	27315
#	51235
#	70855
#	97200
#	120735
#	147290
#	167327
#	192160
#	216712
#	242152
#
# Disc length: 3538 seconds
#
# Revision: 2
# Processed by: cddbd v1.4PL0 Copyright (c) Steve Scherf et al.
# Submitted via: CDex 1.51
#
DISCID=a70dd00b
DTITLE=Womack and Womack - Transformation to the House of Zekkariyas
DYEAR=1993
DGENRE=Folk
TTITLE0=Drive (First Gear)
TTITLE1=Fiesta
TTITLE2=Understanding
TTITLE3=Passion and Pain
TTITLE4=Long Time
TTITLE5=Second Gear (Drive)
TTITLE6=Cand World
TTITLE7=Land of Odd
TTITLE8=Pie in the Sky
TTITLE9=Secret Star
TTITLE10=Focus
EXTD=YEAR: 1993
EXTT0=
EXTT1=
EXTT2=
EXTT3=
EXTT4=
EXTT5=
EXTT6=
EXTT7=
EXTT8=
EXTT9=
EXTT10=
PLAYORDER=
